<svg width="321" height="39" viewBox="0 0 321 39" fill="none" xmlns="http://www.w3.org/2000/svg">
<path d="M0.24 30L5.32 3.6H14.12L8.96 30H0.24ZM15.6559 26C15.6559 25.28 15.8426 24.0133 16.2159 22.2L18.3359 11.4H15.9759L16.1359 10.2C19.3359 9.24 22.4826 7.58667 25.5759 5.24H27.4959L26.5359 9.6H29.6559L29.2959 11.4H26.2159L24.1759 22.2C23.8293 23.8533 23.6559 24.96 23.6559 25.52C23.6559 26.8 24.2159 27.5733 25.3359 27.84C25.0693 28.7467 24.4559 29.4667 23.4959 30C22.5359 30.5333 21.3759 30.8 20.0159 30.8C18.6559 30.8 17.5893 30.3733 16.8159 29.52C16.0426 28.6667 15.6559 27.4933 15.6559 26ZM30.7491 11.48C32.8024 9.26667 33.8291 6.77333 33.8291 4C33.8291 3.14667 33.6824 2.32 33.3891 1.52C33.7091 1.30667 34.1891 1.13333 34.8291 0.999999C35.4691 0.84 36.0291 0.76 36.5091 0.76C37.7091 0.76 38.6424 1.09333 39.3091 1.76C40.0024 2.42666 40.3491 3.33333 40.3491 4.48C40.3491 5.6 40.1491 6.58667 39.7491 7.44C39.3491 8.26667 38.7891 9 38.0691 9.64C36.5491 11.0267 34.6824 11.72 32.4691 11.72C32.0424 11.72 31.4691 11.64 30.7491 11.48ZM51.4291 15.96C51.8024 14.9733 51.9891 14.0533 51.9891 13.2C51.9891 11.6267 51.3491 10.84 50.0691 10.84C49.4024 10.84 48.7891 11.1467 48.2291 11.76C47.6957 12.3467 47.4291 13.0133 47.4291 13.76C47.4291 14.2933 47.6424 14.7733 48.0691 15.2C48.6824 15.7867 49.7757 16.56 51.3491 17.52C52.9224 18.48 54.0024 19.36 54.5891 20.16C55.2024 20.9333 55.5091 21.8667 55.5091 22.96C55.5091 24.0267 55.2424 25.0533 54.7091 26.04C54.2024 27.0267 53.4824 27.8667 52.5491 28.56C50.5491 30.0533 47.9491 30.8 44.7491 30.8C43.0157 30.8 41.4824 30.3467 40.1491 29.44C38.8157 28.56 38.1491 27.6 38.1491 26.56C38.1491 25.52 38.5224 24.6933 39.2691 24.08C40.0424 23.4667 40.9891 23.16 42.1091 23.16C43.2291 23.16 44.1357 23.3733 44.8291 23.8C44.4824 24.68 44.3091 25.4133 44.3091 26C44.3091 27.76 45.0557 28.64 46.5491 28.64C47.1891 28.64 47.7224 28.44 48.1491 28.04C48.5757 27.64 48.7891 27.0933 48.7891 26.4C48.7891 25.04 47.6424 23.64 45.3491 22.2C43.4824 20.9733 42.3357 20.12 41.9091 19.64C41.1891 18.7867 40.8291 17.8267 40.8291 16.76C40.8291 15.6933 41.0824 14.6533 41.5891 13.64C42.0957 12.6267 42.8157 11.76 43.7491 11.04C45.6957 9.54667 48.3624 8.8 51.7491 8.8C53.4824 8.8 54.8557 9.14667 55.8691 9.84C56.9091 10.5333 57.4291 11.4667 57.4291 12.64C57.4291 13.8133 57.0691 14.7333 56.3491 15.4C55.6557 16.0667 54.6691 16.4 53.3891 16.4C52.5091 16.4 51.8557 16.2533 51.4291 15.96ZM95.9644 30.8C92.7377 30.8 91.1244 29.5467 91.1244 27.04C91.1244 25.9467 91.351 24.3467 91.8044 22.24C92.2844 20.1067 92.6044 18.6133 92.7644 17.76C93.1377 15.8133 93.3244 14.5333 93.3244 13.92C93.3244 12.56 92.8177 11.88 91.8044 11.88C91.1377 11.88 90.4844 12.3467 89.8444 13.28C89.2044 14.1867 88.7377 15.56 88.4444 17.4L85.9644 30L78.1644 30.8L80.3244 19.92C80.5644 18.72 80.791 17.44 81.0044 16.08C81.2177 14.72 81.3244 13.9333 81.3244 13.72C81.3244 12.4933 80.871 11.88 79.9644 11.88C79.351 11.88 78.711 12.3333 78.0444 13.24C77.3777 14.1467 76.8577 15.5333 76.4844 17.4L74.0444 30L66.1644 30.8L70.3644 9.6L76.8844 8.8L76.2044 12.84C76.8977 11.4 77.8844 10.3733 79.1644 9.76C80.4444 9.12 82.0844 8.8 84.0844 8.8C85.231 8.8 86.1777 9.08 86.9244 9.64C87.671 10.2 88.1644 10.9333 88.4044 11.84C88.8577 10.9067 89.6577 10.1733 90.8044 9.64C91.9777 9.08 93.271 8.8 94.6844 8.8C96.1244 8.8 97.191 8.96 97.8844 9.28C98.6044 9.57333 99.1777 9.97333 99.6044 10.48C100.324 11.4133 100.684 12.7333 100.684 14.44C100.684 16.12 100.324 18.7067 99.6044 22.2C99.231 23.9067 99.0444 25.08 99.0444 25.72C99.0444 26.3333 99.2177 26.8267 99.5644 27.2C99.9377 27.5733 100.391 27.7867 100.924 27.84C100.658 28.7467 100.058 29.4667 99.1244 30C98.2177 30.5333 97.1644 30.8 95.9644 30.8ZM116.72 25.48C115.334 26.92 113.374 27.64 110.84 27.64C107.667 27.64 105.747 26.48 105.08 24.16C104.867 23.4667 104.76 22.7333 104.76 21.96C104.76 21.1867 104.84 20.4 105 19.6L106.88 9.6L115 8.8L112.8 20.44C112.747 20.7867 112.68 21.1467 112.6 21.52C112.52 21.8933 112.48 22.28 112.48 22.68C112.48 23.0533 112.547 23.3733 112.68 23.64C112.814 23.88 112.974 24.08 113.16 24.24C113.48 24.4533 113.92 24.56 114.48 24.56C115.067 24.56 115.6 24.2133 116.08 23.52C116.587 22.8267 116.96 21.88 117.2 20.68L119.4 9.6L127.28 8.8L124.28 24.52C123.294 29.64 121.787 33.2133 119.76 35.24C118.72 36.28 117.52 37 116.16 37.4C114.827 37.8267 113.294 38.04 111.56 38.04C108.76 38.04 106.56 37.6 104.96 36.72C103.36 35.84 102.56 34.6667 102.56 33.2C102.56 32.1067 102.974 31.24 103.8 30.6C104.627 29.9867 105.68 29.68 106.96 29.68C108.08 29.68 109.067 29.92 109.92 30.4C110.427 30.6933 110.8 31.0267 111.04 31.4C110.427 31.9333 110.12 32.64 110.12 33.52C110.12 34.6933 110.654 35.28 111.72 35.28C113.48 35.28 114.867 33.2533 115.88 29.2C116.174 28 116.454 26.76 116.72 25.48ZM136.449 28.08L141.409 2L149.529 1.2L148.289 7.32C147.996 8.57333 147.662 9.64 147.289 10.52C147.876 9.77333 148.809 9.25333 150.089 8.96C150.462 8.85333 150.876 8.8 151.329 8.8C153.809 8.8 155.729 9.56 157.089 11.08C158.449 12.5733 159.129 14.7733 159.129 17.68C159.129 21.4667 158.049 24.5467 155.889 26.92C153.569 29.5067 150.302 30.8 146.089 30.8C143.182 30.8 140.636 30.32 138.449 29.36C137.676 29.0133 137.009 28.5867 136.449 28.08ZM144.489 27.72C145.049 28.2 145.676 28.44 146.369 28.44C147.062 28.44 147.609 28.3067 148.009 28.04C148.409 27.7733 148.756 27.3733 149.049 26.84C149.849 25.4 150.569 22.48 151.209 18.08C151.396 16.8267 151.489 15.5733 151.489 14.32C151.489 13.0667 151.342 12.24 151.049 11.84C150.782 11.44 150.382 11.24 149.849 11.24C148.222 11.24 147.142 12.8267 146.609 16L144.489 27.72ZM171.139 27.8C170.313 29.8 168.579 30.8 165.939 30.8C164.579 30.8 163.473 30.3333 162.619 29.4C161.899 28.5733 161.539 27.7467 161.539 26.92C161.539 24.76 162.033 21.5733 163.019 17.36L164.499 9.6L172.619 8.8L170.179 21.44C169.726 23.4133 169.499 24.7467 169.499 25.44C169.499 26.96 170.046 27.7467 171.139 27.8ZM165.219 4.04C165.219 3 165.646 2.2 166.499 1.64C167.379 1.08 168.446 0.799999 169.699 0.799999C170.953 0.799999 171.953 1.08 172.699 1.64C173.473 2.2 173.859 3 173.859 4.04C173.859 5.08 173.433 5.86667 172.579 6.4C171.753 6.93333 170.713 7.2 169.459 7.2C168.206 7.2 167.179 6.93333 166.379 6.4C165.606 5.86667 165.219 5.08 165.219 4.04ZM187.067 18.76C188.027 17.0533 188.507 15.3333 188.507 13.6C188.507 12.4533 188.094 11.88 187.267 11.88C186.627 11.88 185.974 12.4267 185.307 13.52C184.614 14.6133 184.161 15.8667 183.947 17.28L181.867 30L173.587 30.8L177.667 9.6L184.267 8.8L183.547 12.84C184.854 10.1467 186.974 8.8 189.907 8.8C191.454 8.8 192.641 9.2 193.467 10C194.321 10.8 194.747 12.0267 194.747 13.68C194.747 15.3067 194.201 16.64 193.107 17.68C192.041 18.72 190.587 19.24 188.747 19.24C187.947 19.24 187.387 19.08 187.067 18.76ZM196.047 26C196.047 25.28 196.233 24.0133 196.607 22.2L198.727 11.4H196.367L196.527 10.2C199.727 9.24 202.873 7.58667 205.967 5.24H207.887L206.927 9.6H210.047L209.687 11.4H206.607L204.567 22.2C204.22 23.8533 204.047 24.96 204.047 25.52C204.047 26.8 204.607 27.5733 205.727 27.84C205.46 28.7467 204.847 29.4667 203.887 30C202.927 30.5333 201.767 30.8 200.407 30.8C199.047 30.8 197.98 30.3733 197.207 29.52C196.433 28.6667 196.047 27.4933 196.047 26ZM229.98 25.56C229.98 26.7333 230.58 27.4933 231.78 27.84C231.486 28.8267 230.766 29.5867 229.62 30.12C228.66 30.5733 227.646 30.8 226.58 30.8C225.54 30.8 224.74 30.6533 224.18 30.36C223.646 30.0933 223.233 29.7333 222.94 29.28C222.46 28.5867 222.22 27.5867 222.22 26.28C222.22 25.5067 222.433 24.0533 222.86 21.92L223.42 18.88C223.873 16.56 224.1 14.9733 224.1 14.12C224.1 12.6267 223.686 11.88 222.86 11.88C221.82 11.88 220.966 12.64 220.3 14.16C220.033 14.7467 219.806 15.48 219.62 16.36L216.9 30L208.86 30.8L214.5 2L222.54 1.2L222.22 2.8C221.473 6.90667 220.78 9.65333 220.14 11.04C221.633 9.54667 223.753 8.8 226.5 8.8C229.406 8.8 231.126 9.76 231.66 11.68C231.846 12.2933 231.94 12.8667 231.94 13.4C231.94 13.9333 231.913 14.4133 231.86 14.84C231.833 15.24 231.753 15.8133 231.62 16.56L231.1 19.44L230.18 23.96C230.046 24.5733 229.98 25.1067 229.98 25.56ZM247.616 8.8C248.576 8.8 249.429 8.90667 250.176 9.12C250.203 9.01333 250.243 8.81333 250.296 8.52L250.496 7.28C250.603 6.74667 250.736 6.04 250.896 5.16L251.536 2L259.496 1.2L255.056 24.4C255.029 24.56 255.016 24.7733 255.016 25.04V25.68C255.016 26.2667 255.163 26.7867 255.456 27.24C255.749 27.6667 256.136 27.88 256.616 27.88C256.083 29.1333 255.003 30.0267 253.376 30.56C252.816 30.72 252.136 30.8 251.336 30.8C250.563 30.8 249.816 30.5867 249.096 30.16C248.376 29.76 247.909 29.2133 247.696 28.52C247.269 29.2133 246.629 29.76 245.776 30.16C244.923 30.5867 243.869 30.8 242.616 30.8C241.389 30.8 240.256 30.64 239.216 30.32C238.203 30 237.376 29.4933 236.736 28.8C235.563 27.44 234.976 25.2133 234.976 22.12C234.976 18.12 236.149 14.9067 238.496 12.48C240.843 10.0267 243.883 8.8 247.616 8.8ZM247.336 11.2C246.349 11.2 245.589 11.7333 245.056 12.8C244.523 13.8667 243.976 15.72 243.416 18.36C242.883 21 242.616 23.5067 242.616 25.88C242.616 27.5067 243.096 28.32 244.056 28.32C244.909 28.32 245.629 27.8933 246.216 27.04C246.829 26.1867 247.256 25.0533 247.496 23.64L249.656 11.92C249.096 11.44 248.323 11.2 247.336 11.2ZM261.736 28.8C261.123 28.1067 260.669 27.2133 260.376 26.12C260.109 25.0267 259.976 23.5867 259.976 21.8C259.976 20.0133 260.283 18.3067 260.896 16.68C261.509 15.0533 262.376 13.6533 263.496 12.48C265.789 10.0267 268.829 8.8 272.616 8.8C273.976 8.8 275.149 9.02667 276.136 9.48L282.976 8.8L280.016 24.4C279.936 24.72 279.896 25.1733 279.896 25.76C279.896 26.3467 280.069 26.8267 280.416 27.2C280.789 27.5733 281.243 27.7867 281.776 27.84C281.509 28.7467 280.883 29.4667 279.896 30C278.936 30.5333 277.909 30.8 276.816 30.8C275.723 30.8 274.803 30.5867 274.056 30.16C273.336 29.76 272.869 29.2133 272.656 28.52C272.229 29.1867 271.563 29.7333 270.656 30.16C269.749 30.5867 268.683 30.8 267.456 30.8C266.256 30.8 265.163 30.64 264.176 30.32C263.189 30 262.376 29.4933 261.736 28.8ZM270.176 12.56C269.883 13.04 269.603 13.6933 269.336 14.52C269.069 15.32 268.709 16.8133 268.256 19C267.829 21.16 267.616 23.0133 267.616 24.56C267.616 26.1067 267.736 27.1067 267.976 27.56C268.216 28.0133 268.549 28.24 268.976 28.24C269.829 28.24 270.563 27.84 271.176 27.04C271.816 26.2133 272.256 25.08 272.496 23.64L274.616 11.92C274.056 11.44 273.443 11.2 272.776 11.2C272.136 11.2 271.616 11.3067 271.216 11.52C270.843 11.7333 270.496 12.08 270.176 12.56ZM297.853 25.48C296.466 26.92 294.506 27.64 291.973 27.64C288.8 27.64 286.88 26.48 286.213 24.16C286 23.4667 285.893 22.7333 285.893 21.96C285.893 21.1867 285.973 20.4 286.133 19.6L288.013 9.6L296.133 8.8L293.933 20.44C293.88 20.7867 293.813 21.1467 293.733 21.52C293.653 21.8933 293.613 22.28 293.613 22.68C293.613 23.0533 293.68 23.3733 293.813 23.64C293.946 23.88 294.106 24.08 294.293 24.24C294.613 24.4533 295.053 24.56 295.613 24.56C296.2 24.56 296.733 24.2133 297.213 23.52C297.72 22.8267 298.093 21.88 298.333 20.68L300.533 9.6L308.413 8.8L305.413 24.52C304.426 29.64 302.92 33.2133 300.893 35.24C299.853 36.28 298.653 37 297.293 37.4C295.96 37.8267 294.426 38.04 292.693 38.04C289.893 38.04 287.693 37.6 286.093 36.72C284.493 35.84 283.693 34.6667 283.693 33.2C283.693 32.1067 284.106 31.24 284.933 30.6C285.76 29.9867 286.813 29.68 288.093 29.68C289.213 29.68 290.2 29.92 291.053 30.4C291.56 30.6933 291.933 31.0267 292.173 31.4C291.56 31.9333 291.253 32.64 291.253 33.52C291.253 34.6933 291.786 35.28 292.853 35.28C294.613 35.28 296 33.2533 297.013 29.2C297.306 28 297.586 26.76 297.853 25.48ZM308.78 27.64C308.78 26.6267 309.153 25.8533 309.9 25.32C310.673 24.76 311.62 24.48 312.74 24.48C313.86 24.48 314.766 24.76 315.46 25.32C316.18 25.8533 316.54 26.6267 316.54 27.64C316.54 28.6533 316.14 29.44 315.34 30C314.566 30.56 313.62 30.84 312.5 30.84C311.38 30.84 310.473 30.56 309.78 30C309.113 29.44 308.78 28.6533 308.78 27.64ZM310.94 20.12C310.94 19.9333 310.966 19.7067 311.02 19.44L314.14 3.36C315.126 2.98667 316.206 2.8 317.38 2.8C318.553 2.8 319.446 3.17333 320.06 3.92C320.673 4.66667 320.98 5.6 320.98 6.72C320.98 7.81333 320.766 8.98667 320.34 10.24C319.913 11.4667 319.433 12.7067 318.9 13.96C318.393 15.2133 317.913 16.4933 317.46 17.8C317.033 19.08 316.806 20.4 316.78 21.76C316.166 22.4533 315.326 22.8 314.26 22.8C313.193 22.8 312.366 22.56 311.78 22.08C311.22 21.5733 310.94 20.92 310.94 20.12Z" fill="white"/>
</svg>
